<svg width="101" height="100" viewBox="0 0 101 100" fill="none" xmlns="http://www.w3.org/2000/svg">
<g clip-path="url(#clip0_29361_4047)">
<path d="M91.6301 54.8264C91.6301 79.7753 71.4031 100 46.4549 100C40.3346 100 34.5004 98.7832 29.1789 96.5776C14.6342 90.5526 3.92102 77.1485 1.70621 61.0353C1.42468 59.0058 1.28125 56.9329 1.28125 54.8264C1.28125 29.876 21.506 9.65125 46.4549 9.65125C71.4031 9.65125 91.6301 29.876 91.6301 54.8264Z" fill="#F6F8FE"/>
<path d="M46.4549 9.65125C44.0662 9.65125 41.7217 9.83817 39.4336 10.1952C61.0484 13.5682 77.5882 32.264 77.5882 54.8264C77.5882 77.3858 61.05 96.0809 39.4366 99.4554C41.7239 99.8124 44.0669 100 46.4542 100C71.4031 100 91.6301 79.7753 91.6301 54.8264C91.6301 29.876 71.4031 9.65125 46.4549 9.65125Z" fill="#F6F8FE"/>
<path d="M97.2697 51.487L71.474 68.5685C69.6361 69.7861 67.4098 70.2691 65.2339 69.9212C63.0526 69.574 60.821 70.0501 58.9785 71.27L55.5262 73.5581L36.1934 45.06L40.9366 24.569C41.3051 22.9737 41.4874 21.357 41.4874 19.7464C41.4874 15.58 40.269 11.4678 37.9321 7.93764C37.3576 7.06942 37.0829 6.08752 37.0829 5.11782C37.0829 3.46071 37.8871 1.83489 39.3733 0.850696C41.376 -0.476056 44.0303 -0.229626 45.7545 1.44274L48.8276 4.41897C52.3417 7.82854 55.0525 11.9797 56.7546 16.5711L58.4208 21.0572L75.5801 9.71987C78.3206 7.9056 82.0277 8.69906 83.7779 11.5059C85.4655 14.2098 84.5988 17.7826 81.94 19.5427C81.9079 19.5641 81.9056 19.5984 81.9163 19.6244C81.9316 19.6526 81.9636 19.6717 81.9995 19.6564C82.6777 19.3955 83.3873 19.2688 84.0907 19.2688C85.2137 19.2688 86.3269 19.5923 87.279 20.208C87.9352 20.6322 88.5165 21.196 88.975 21.8888C89.8608 23.227 90.1248 24.7963 89.8349 26.2551C89.3802 28.553 87.7101 29.7371 87.382 29.9599C87.3263 29.9988 87.3111 30.0759 87.35 30.1339C87.35 30.1354 87.3523 30.1377 87.3538 30.1377C87.3904 30.1895 87.4652 30.204 87.5186 30.1705C87.9863 30.0568 88.4623 30.0026 88.9384 30.0026C90.1004 30.0026 91.2562 30.333 92.2389 30.9594C92.9034 31.3843 93.4909 31.9458 93.9456 32.634C95.7293 35.3272 94.9923 38.9572 92.2961 40.7418C92.2297 40.7868 92.1634 40.8318 92.097 40.8745C92.0588 40.905 92.0474 40.9539 92.0672 40.9882C92.071 40.9966 92.0802 41.0057 92.0886 41.0096C92.1184 41.0332 92.1657 41.0355 92.2046 41.0057C93.8792 40.4351 95.7019 40.6945 97.1682 41.6443C97.8434 42.0777 98.4424 42.6613 98.9161 43.377C100.701 46.0724 99.9629 49.7025 97.2697 51.487Z" fill="#FDD7BD"/>
<path d="M55.7728 78.9666L44.8902 86.1733L29.179 96.5775C14.6343 90.5518 3.92111 77.15 1.7063 61.0352L19.939 48.9609L31.0383 41.61C32.3162 40.7631 34.0404 41.1149 34.8873 42.3951L56.5578 75.1153C57.4047 76.3955 57.053 78.1167 55.7728 78.9666Z" fill="#28AF60"/>
<path d="M87.2791 20.2072L78.6953 24.8009C77.4777 25.4509 75.9678 25.1114 75.1492 24.0028L81.9164 19.6243C81.9317 19.6526 81.9637 19.6716 81.9996 19.6564C82.6779 19.3954 83.3874 19.2688 84.0908 19.2688C85.2146 19.2688 86.327 19.5923 87.2791 20.2072Z" fill="#FAC5AA"/>
<path d="M92.239 30.9593L83.8421 35.4492C82.6244 36.1015 81.1146 35.7628 80.2952 34.6542L87.0624 30.2749L87.3546 30.1376C87.3913 30.1895 87.466 30.204 87.5194 30.1704C87.9871 30.0567 88.4632 30.0026 88.9393 30.0026C90.1012 30.0026 91.2571 30.3329 92.239 30.9593Z" fill="#FAC5AA"/>
<path d="M97.1692 41.6443L89.7732 45.6009C88.5571 46.2501 87.048 45.9114 86.2263 44.8029L92.0888 41.0095C92.1193 41.0332 92.1666 41.0355 92.2047 41.005C93.8794 40.435 95.7021 40.6944 97.1692 41.6443Z" fill="#FAC5AA"/>
</g>
<defs>
<clipPath id="clip0_29361_4047">
<rect width="100" height="100" fill="white" transform="translate(0.5)"/>
</clipPath>
</defs>
</svg>
